<mxfile host="app.diagrams.net" modified="2023-12-14T17:35:29.317Z" agent="Mozilla/5.0 (X11; Linux x86_64) AppleWebKit/537.36 (KHTML, like Gecko) Chrome/120.0.0.0 Safari/537.36" etag="L7sIbpDOgKSF_hpmrPwj" version="22.1.8" type="device" pages="2">
  <diagram name="Encrypt" id="o71IDkHV3ZvDwMHHaNhy">
    <mxGraphModel dx="750" dy="519" grid="1" gridSize="10" guides="1" tooltips="1" connect="1" arrows="1" fold="1" page="1" pageScale="1" pageWidth="850" pageHeight="1100" math="0" shadow="0">
      <root>
        <mxCell id="0" />
        <mxCell id="1" parent="0" />
        <mxCell id="7T_0Ri3ZbX09s26zW6ti-1" value="M&lt;sub&gt;1&lt;/sub&gt;" style="rounded=0;whiteSpace=wrap;html=1;" parent="1" vertex="1">
          <mxGeometry x="110" y="80" width="120" height="30" as="geometry" />
        </mxCell>
        <mxCell id="7T_0Ri3ZbX09s26zW6ti-2" value="M&lt;span style=&quot;font-size: 10px;&quot;&gt;&lt;sub&gt;2&lt;/sub&gt;&lt;/span&gt;" style="rounded=0;whiteSpace=wrap;html=1;" parent="1" vertex="1">
          <mxGeometry x="300" y="80" width="120" height="30" as="geometry" />
        </mxCell>
        <mxCell id="7T_0Ri3ZbX09s26zW6ti-3" value="M&lt;span style=&quot;font-size: 8.33333px;&quot;&gt;n&lt;/span&gt;" style="rounded=0;whiteSpace=wrap;html=1;" parent="1" vertex="1">
          <mxGeometry x="505" y="80" width="120" height="35" as="geometry" />
        </mxCell>
        <mxCell id="7T_0Ri3ZbX09s26zW6ti-4" value="..." style="text;html=1;strokeColor=none;fillColor=none;align=center;verticalAlign=middle;whiteSpace=wrap;rounded=0;" parent="1" vertex="1">
          <mxGeometry x="430" y="75" width="60" height="35" as="geometry" />
        </mxCell>
        <mxCell id="7T_0Ri3ZbX09s26zW6ti-14" value="IV" style="text;html=1;strokeColor=none;fillColor=none;align=center;verticalAlign=middle;whiteSpace=wrap;rounded=0;" parent="1" vertex="1">
          <mxGeometry x="50" y="150" width="30" height="30" as="geometry" />
        </mxCell>
        <mxCell id="7T_0Ri3ZbX09s26zW6ti-15" value="" style="verticalLabelPosition=bottom;verticalAlign=top;html=1;shape=mxgraph.flowchart.summing_function;" parent="1" vertex="1">
          <mxGeometry x="160" y="155" width="20" height="20" as="geometry" />
        </mxCell>
        <mxCell id="7T_0Ri3ZbX09s26zW6ti-45" style="edgeStyle=orthogonalEdgeStyle;rounded=0;orthogonalLoop=1;jettySize=auto;html=1;" parent="1" source="7T_0Ri3ZbX09s26zW6ti-16" target="7T_0Ri3ZbX09s26zW6ti-41" edge="1">
          <mxGeometry relative="1" as="geometry">
            <Array as="points">
              <mxPoint x="170" y="320" />
              <mxPoint x="170" y="320" />
            </Array>
          </mxGeometry>
        </mxCell>
        <mxCell id="7T_0Ri3ZbX09s26zW6ti-16" value="AES" style="rounded=0;whiteSpace=wrap;html=1;" parent="1" vertex="1">
          <mxGeometry x="120" y="220" width="100" height="50" as="geometry" />
        </mxCell>
        <mxCell id="7T_0Ri3ZbX09s26zW6ti-18" value="" style="endArrow=classic;html=1;rounded=0;exitX=1;exitY=0.5;exitDx=0;exitDy=0;entryX=0;entryY=0.5;entryDx=0;entryDy=0;entryPerimeter=0;" parent="1" source="7T_0Ri3ZbX09s26zW6ti-14" target="7T_0Ri3ZbX09s26zW6ti-15" edge="1">
          <mxGeometry width="50" height="50" relative="1" as="geometry">
            <mxPoint x="270" y="200" as="sourcePoint" />
            <mxPoint x="320" y="150" as="targetPoint" />
          </mxGeometry>
        </mxCell>
        <mxCell id="7T_0Ri3ZbX09s26zW6ti-19" value="" style="endArrow=classic;html=1;rounded=0;exitX=0.5;exitY=1;exitDx=0;exitDy=0;entryX=0.5;entryY=0;entryDx=0;entryDy=0;entryPerimeter=0;" parent="1" source="7T_0Ri3ZbX09s26zW6ti-1" target="7T_0Ri3ZbX09s26zW6ti-15" edge="1">
          <mxGeometry width="50" height="50" relative="1" as="geometry">
            <mxPoint x="270" y="200" as="sourcePoint" />
            <mxPoint x="320" y="150" as="targetPoint" />
          </mxGeometry>
        </mxCell>
        <mxCell id="7T_0Ri3ZbX09s26zW6ti-20" value="" style="endArrow=classic;html=1;rounded=0;entryX=0;entryY=0.5;entryDx=0;entryDy=0;" parent="1" edge="1">
          <mxGeometry width="50" height="50" relative="1" as="geometry">
            <mxPoint x="90" y="245" as="sourcePoint" />
            <mxPoint x="120" y="245" as="targetPoint" />
          </mxGeometry>
        </mxCell>
        <mxCell id="7T_0Ri3ZbX09s26zW6ti-21" value="K&lt;sub&gt;1 &lt;/sub&gt;= f(X&lt;sub&gt;1&lt;/sub&gt;)&lt;sub&gt;&amp;nbsp;&lt;/sub&gt;" style="text;html=1;strokeColor=none;fillColor=none;align=center;verticalAlign=middle;whiteSpace=wrap;rounded=0;" parent="1" vertex="1">
          <mxGeometry x="30" y="230" width="60" height="30" as="geometry" />
        </mxCell>
        <mxCell id="7T_0Ri3ZbX09s26zW6ti-22" value="" style="endArrow=classic;html=1;rounded=0;exitX=0.5;exitY=1;exitDx=0;exitDy=0;exitPerimeter=0;entryX=0.5;entryY=0;entryDx=0;entryDy=0;" parent="1" source="7T_0Ri3ZbX09s26zW6ti-15" target="7T_0Ri3ZbX09s26zW6ti-16" edge="1">
          <mxGeometry width="50" height="50" relative="1" as="geometry">
            <mxPoint x="270" y="200" as="sourcePoint" />
            <mxPoint x="320" y="150" as="targetPoint" />
          </mxGeometry>
        </mxCell>
        <mxCell id="7T_0Ri3ZbX09s26zW6ti-46" style="edgeStyle=orthogonalEdgeStyle;rounded=0;orthogonalLoop=1;jettySize=auto;html=1;entryX=0.461;entryY=0.01;entryDx=0;entryDy=0;entryPerimeter=0;" parent="1" source="7T_0Ri3ZbX09s26zW6ti-24" target="7T_0Ri3ZbX09s26zW6ti-42" edge="1">
          <mxGeometry relative="1" as="geometry" />
        </mxCell>
        <mxCell id="7T_0Ri3ZbX09s26zW6ti-24" value="AES" style="rounded=0;whiteSpace=wrap;html=1;" parent="1" vertex="1">
          <mxGeometry x="310" y="220" width="100" height="50" as="geometry" />
        </mxCell>
        <mxCell id="7T_0Ri3ZbX09s26zW6ti-47" style="edgeStyle=orthogonalEdgeStyle;rounded=0;orthogonalLoop=1;jettySize=auto;html=1;entryX=0.5;entryY=0;entryDx=0;entryDy=0;" parent="1" source="7T_0Ri3ZbX09s26zW6ti-25" target="7T_0Ri3ZbX09s26zW6ti-43" edge="1">
          <mxGeometry relative="1" as="geometry" />
        </mxCell>
        <mxCell id="7T_0Ri3ZbX09s26zW6ti-25" value="AES" style="rounded=0;whiteSpace=wrap;html=1;" parent="1" vertex="1">
          <mxGeometry x="515" y="225" width="100" height="50" as="geometry" />
        </mxCell>
        <mxCell id="7T_0Ri3ZbX09s26zW6ti-26" value="K&lt;sub&gt;2&amp;nbsp;&lt;/sub&gt;= f(X&lt;sub style=&quot;border-color: var(--border-color);&quot;&gt;2&lt;/sub&gt;&lt;span style=&quot;border-color: var(--border-color);&quot;&gt;)&lt;/span&gt;&lt;sub style=&quot;border-color: var(--border-color);&quot;&gt;&amp;nbsp;&lt;/sub&gt;" style="text;html=1;strokeColor=none;fillColor=none;align=center;verticalAlign=middle;whiteSpace=wrap;rounded=0;" parent="1" vertex="1">
          <mxGeometry x="230" y="230" width="60" height="30" as="geometry" />
        </mxCell>
        <mxCell id="7T_0Ri3ZbX09s26zW6ti-27" value="K&lt;sub&gt;n&amp;nbsp;&lt;/sub&gt;= f(X&lt;sub style=&quot;border-color: var(--border-color);&quot;&gt;n&lt;/sub&gt;)" style="text;html=1;strokeColor=none;fillColor=none;align=center;verticalAlign=middle;whiteSpace=wrap;rounded=0;" parent="1" vertex="1">
          <mxGeometry x="440" y="235" width="60" height="30" as="geometry" />
        </mxCell>
        <mxCell id="7T_0Ri3ZbX09s26zW6ti-28" value="" style="endArrow=classic;html=1;rounded=0;entryX=0;entryY=0.5;entryDx=0;entryDy=0;" parent="1" target="7T_0Ri3ZbX09s26zW6ti-24" edge="1">
          <mxGeometry width="50" height="50" relative="1" as="geometry">
            <mxPoint x="290" y="245" as="sourcePoint" />
            <mxPoint x="290" y="150" as="targetPoint" />
          </mxGeometry>
        </mxCell>
        <mxCell id="7T_0Ri3ZbX09s26zW6ti-29" value="" style="endArrow=classic;html=1;rounded=0;exitX=1;exitY=0.5;exitDx=0;exitDy=0;" parent="1" target="7T_0Ri3ZbX09s26zW6ti-25" edge="1">
          <mxGeometry width="50" height="50" relative="1" as="geometry">
            <mxPoint x="495" y="250" as="sourcePoint" />
            <mxPoint x="225" y="283" as="targetPoint" />
          </mxGeometry>
        </mxCell>
        <mxCell id="7T_0Ri3ZbX09s26zW6ti-38" value="" style="group" parent="1" vertex="1" connectable="0">
          <mxGeometry x="350" y="110" width="20" height="110" as="geometry" />
        </mxCell>
        <mxCell id="7T_0Ri3ZbX09s26zW6ti-35" value="" style="endArrow=classic;html=1;rounded=0;exitX=0.5;exitY=1;exitDx=0;exitDy=0;entryX=0.5;entryY=0;entryDx=0;entryDy=0;entryPerimeter=0;" parent="7T_0Ri3ZbX09s26zW6ti-38" target="7T_0Ri3ZbX09s26zW6ti-36" edge="1">
          <mxGeometry width="50" height="50" relative="1" as="geometry">
            <mxPoint x="10" as="sourcePoint" />
            <mxPoint x="160" y="40" as="targetPoint" />
          </mxGeometry>
        </mxCell>
        <mxCell id="7T_0Ri3ZbX09s26zW6ti-36" value="" style="verticalLabelPosition=bottom;verticalAlign=top;html=1;shape=mxgraph.flowchart.summing_function;" parent="7T_0Ri3ZbX09s26zW6ti-38" vertex="1">
          <mxGeometry y="45" width="20" height="20" as="geometry" />
        </mxCell>
        <mxCell id="7T_0Ri3ZbX09s26zW6ti-37" value="" style="endArrow=classic;html=1;rounded=0;exitX=0.5;exitY=1;exitDx=0;exitDy=0;exitPerimeter=0;entryX=0.5;entryY=0;entryDx=0;entryDy=0;" parent="7T_0Ri3ZbX09s26zW6ti-38" source="7T_0Ri3ZbX09s26zW6ti-36" edge="1">
          <mxGeometry width="50" height="50" relative="1" as="geometry">
            <mxPoint x="110" y="90" as="sourcePoint" />
            <mxPoint x="10" y="110" as="targetPoint" />
          </mxGeometry>
        </mxCell>
        <mxCell id="dLOgtfsmVxxkVSINsV2v-58" style="edgeStyle=orthogonalEdgeStyle;rounded=0;orthogonalLoop=1;jettySize=auto;html=1;" parent="1" edge="1">
          <mxGeometry relative="1" as="geometry">
            <mxPoint x="135" y="370" as="sourcePoint" />
            <mxPoint x="135" y="400" as="targetPoint" />
            <Array as="points">
              <mxPoint x="135" y="380" />
              <mxPoint x="135" y="380" />
            </Array>
          </mxGeometry>
        </mxCell>
        <mxCell id="7T_0Ri3ZbX09s26zW6ti-41" value="C&lt;sub&gt;1&lt;/sub&gt;" style="rounded=0;whiteSpace=wrap;html=1;" parent="1" vertex="1">
          <mxGeometry x="110" y="340" width="130" height="30" as="geometry" />
        </mxCell>
        <mxCell id="7T_0Ri3ZbX09s26zW6ti-42" value="C&lt;sub&gt;2&lt;/sub&gt;" style="rounded=0;whiteSpace=wrap;html=1;" parent="1" vertex="1">
          <mxGeometry x="300" y="340" width="130" height="30" as="geometry" />
        </mxCell>
        <mxCell id="7T_0Ri3ZbX09s26zW6ti-43" value="C&lt;sub&gt;n&lt;/sub&gt;" style="rounded=0;whiteSpace=wrap;html=1;" parent="1" vertex="1">
          <mxGeometry x="505" y="340" width="120" height="30" as="geometry" />
        </mxCell>
        <mxCell id="7T_0Ri3ZbX09s26zW6ti-48" value="" style="group" parent="1" vertex="1" connectable="0">
          <mxGeometry x="555" y="114" width="20" height="110" as="geometry" />
        </mxCell>
        <mxCell id="7T_0Ri3ZbX09s26zW6ti-49" value="" style="endArrow=classic;html=1;rounded=0;exitX=0.5;exitY=1;exitDx=0;exitDy=0;entryX=0.5;entryY=0;entryDx=0;entryDy=0;entryPerimeter=0;" parent="7T_0Ri3ZbX09s26zW6ti-48" target="7T_0Ri3ZbX09s26zW6ti-50" edge="1">
          <mxGeometry width="50" height="50" relative="1" as="geometry">
            <mxPoint x="10" as="sourcePoint" />
            <mxPoint x="160" y="40" as="targetPoint" />
          </mxGeometry>
        </mxCell>
        <mxCell id="7T_0Ri3ZbX09s26zW6ti-50" value="" style="verticalLabelPosition=bottom;verticalAlign=top;html=1;shape=mxgraph.flowchart.summing_function;" parent="7T_0Ri3ZbX09s26zW6ti-48" vertex="1">
          <mxGeometry y="45" width="20" height="20" as="geometry" />
        </mxCell>
        <mxCell id="7T_0Ri3ZbX09s26zW6ti-51" value="" style="endArrow=classic;html=1;rounded=0;exitX=0.5;exitY=1;exitDx=0;exitDy=0;exitPerimeter=0;entryX=0.5;entryY=0;entryDx=0;entryDy=0;" parent="7T_0Ri3ZbX09s26zW6ti-48" source="7T_0Ri3ZbX09s26zW6ti-50" edge="1">
          <mxGeometry width="50" height="50" relative="1" as="geometry">
            <mxPoint x="110" y="90" as="sourcePoint" />
            <mxPoint x="10" y="110" as="targetPoint" />
          </mxGeometry>
        </mxCell>
        <mxCell id="7T_0Ri3ZbX09s26zW6ti-55" style="edgeStyle=orthogonalEdgeStyle;rounded=0;orthogonalLoop=1;jettySize=auto;html=1;entryX=0;entryY=0.5;entryDx=0;entryDy=0;entryPerimeter=0;" parent="1" source="7T_0Ri3ZbX09s26zW6ti-16" target="7T_0Ri3ZbX09s26zW6ti-36" edge="1">
          <mxGeometry relative="1" as="geometry">
            <Array as="points">
              <mxPoint x="170" y="290" />
              <mxPoint x="230" y="290" />
              <mxPoint x="230" y="165" />
            </Array>
          </mxGeometry>
        </mxCell>
        <mxCell id="ZEX6KtnuvBcWyt1rVBs4-1" value="" style="endArrow=classic;html=1;rounded=0;" parent="1" edge="1">
          <mxGeometry width="50" height="50" relative="1" as="geometry">
            <mxPoint x="510" y="170" as="sourcePoint" />
            <mxPoint x="555" y="170" as="targetPoint" />
          </mxGeometry>
        </mxCell>
        <mxCell id="ZEX6KtnuvBcWyt1rVBs4-2" value="C&lt;sub style=&quot;border-color: var(--border-color);&quot;&gt;n-1&lt;/sub&gt;" style="text;html=1;strokeColor=none;fillColor=none;align=center;verticalAlign=middle;whiteSpace=wrap;rounded=0;" parent="1" vertex="1">
          <mxGeometry x="475" y="154" width="40" height="30" as="geometry" />
        </mxCell>
        <mxCell id="dLOgtfsmVxxkVSINsV2v-55" value="Fungsi MAC" style="rounded=0;whiteSpace=wrap;html=1;" parent="1" vertex="1">
          <mxGeometry x="105" y="400" width="60" height="30" as="geometry" />
        </mxCell>
        <mxCell id="dLOgtfsmVxxkVSINsV2v-56" value="" style="endArrow=classic;html=1;rounded=0;entryX=0;entryY=0.5;entryDx=0;entryDy=0;" parent="1" edge="1">
          <mxGeometry width="50" height="50" relative="1" as="geometry">
            <mxPoint x="75" y="415" as="sourcePoint" />
            <mxPoint x="105" y="415" as="targetPoint" />
          </mxGeometry>
        </mxCell>
        <mxCell id="dLOgtfsmVxxkVSINsV2v-57" value="K&lt;sub&gt;1&amp;nbsp;&lt;/sub&gt;= f(X&lt;sub style=&quot;border-color: var(--border-color);&quot;&gt;1&lt;/sub&gt;&lt;span style=&quot;border-color: var(--border-color);&quot;&gt;)&lt;/span&gt;&lt;sub style=&quot;border-color: var(--border-color);&quot;&gt;&amp;nbsp;&lt;/sub&gt;" style="text;html=1;strokeColor=none;fillColor=none;align=center;verticalAlign=middle;whiteSpace=wrap;rounded=0;" parent="1" vertex="1">
          <mxGeometry x="20" y="400" width="60" height="30" as="geometry" />
        </mxCell>
        <mxCell id="dLOgtfsmVxxkVSINsV2v-59" value="C&lt;sub&gt;1&lt;/sub&gt;" style="rounded=0;whiteSpace=wrap;html=1;" parent="1" vertex="1">
          <mxGeometry x="160" y="460" width="80" height="30" as="geometry" />
        </mxCell>
        <mxCell id="dLOgtfsmVxxkVSINsV2v-60" value="MAC&lt;sub&gt;1&lt;/sub&gt;" style="rounded=0;whiteSpace=wrap;html=1;" parent="1" vertex="1">
          <mxGeometry x="110" y="460" width="50" height="30" as="geometry" />
        </mxCell>
        <mxCell id="dLOgtfsmVxxkVSINsV2v-63" style="edgeStyle=orthogonalEdgeStyle;rounded=0;orthogonalLoop=1;jettySize=auto;html=1;" parent="1" edge="1">
          <mxGeometry relative="1" as="geometry">
            <mxPoint x="136" y="431" as="sourcePoint" />
            <mxPoint x="136" y="461" as="targetPoint" />
            <Array as="points">
              <mxPoint x="136" y="441" />
              <mxPoint x="136" y="441" />
            </Array>
          </mxGeometry>
        </mxCell>
        <mxCell id="dLOgtfsmVxxkVSINsV2v-64" style="edgeStyle=orthogonalEdgeStyle;rounded=0;orthogonalLoop=1;jettySize=auto;html=1;exitX=0.689;exitY=1.093;exitDx=0;exitDy=0;exitPerimeter=0;" parent="1" source="7T_0Ri3ZbX09s26zW6ti-41" edge="1">
          <mxGeometry relative="1" as="geometry">
            <mxPoint x="200" y="430" as="sourcePoint" />
            <mxPoint x="200" y="460" as="targetPoint" />
            <Array as="points">
              <mxPoint x="200" y="440" />
            </Array>
          </mxGeometry>
        </mxCell>
        <mxCell id="dLOgtfsmVxxkVSINsV2v-65" style="edgeStyle=orthogonalEdgeStyle;rounded=0;orthogonalLoop=1;jettySize=auto;html=1;" parent="1" edge="1">
          <mxGeometry relative="1" as="geometry">
            <mxPoint x="325" y="370" as="sourcePoint" />
            <mxPoint x="325" y="400" as="targetPoint" />
            <Array as="points">
              <mxPoint x="325" y="380" />
              <mxPoint x="325" y="380" />
            </Array>
          </mxGeometry>
        </mxCell>
        <mxCell id="dLOgtfsmVxxkVSINsV2v-66" value="Fungsi&lt;br&gt;MAC" style="rounded=0;whiteSpace=wrap;html=1;" parent="1" vertex="1">
          <mxGeometry x="300" y="400" width="50" height="30" as="geometry" />
        </mxCell>
        <mxCell id="dLOgtfsmVxxkVSINsV2v-67" value="" style="endArrow=classic;html=1;rounded=0;entryX=0;entryY=0.5;entryDx=0;entryDy=0;" parent="1" edge="1">
          <mxGeometry width="50" height="50" relative="1" as="geometry">
            <mxPoint x="270" y="415" as="sourcePoint" />
            <mxPoint x="300" y="415" as="targetPoint" />
          </mxGeometry>
        </mxCell>
        <mxCell id="dLOgtfsmVxxkVSINsV2v-73" value="" style="edgeStyle=orthogonalEdgeStyle;rounded=0;orthogonalLoop=1;jettySize=auto;html=1;" parent="1" target="dLOgtfsmVxxkVSINsV2v-66" edge="1">
          <mxGeometry relative="1" as="geometry">
            <mxPoint x="280" y="415" as="sourcePoint" />
          </mxGeometry>
        </mxCell>
        <mxCell id="dLOgtfsmVxxkVSINsV2v-68" value="K&lt;sub&gt;2&amp;nbsp;&lt;/sub&gt;= f(X&lt;sub style=&quot;border-color: var(--border-color);&quot;&gt;2&lt;/sub&gt;&lt;span style=&quot;border-color: var(--border-color);&quot;&gt;)&lt;/span&gt;" style="text;html=1;strokeColor=none;fillColor=none;align=center;verticalAlign=middle;whiteSpace=wrap;rounded=0;" parent="1" vertex="1">
          <mxGeometry x="210" y="400" width="60" height="30" as="geometry" />
        </mxCell>
        <mxCell id="dLOgtfsmVxxkVSINsV2v-69" value="C&lt;span style=&quot;font-size: 10px;&quot;&gt;2&lt;/span&gt;" style="rounded=0;whiteSpace=wrap;html=1;" parent="1" vertex="1">
          <mxGeometry x="350" y="460" width="80" height="30" as="geometry" />
        </mxCell>
        <mxCell id="dLOgtfsmVxxkVSINsV2v-70" value="MAC&lt;sub&gt;2&lt;/sub&gt;" style="rounded=0;whiteSpace=wrap;html=1;" parent="1" vertex="1">
          <mxGeometry x="300" y="460" width="50" height="30" as="geometry" />
        </mxCell>
        <mxCell id="dLOgtfsmVxxkVSINsV2v-71" style="edgeStyle=orthogonalEdgeStyle;rounded=0;orthogonalLoop=1;jettySize=auto;html=1;" parent="1" edge="1">
          <mxGeometry relative="1" as="geometry">
            <mxPoint x="326" y="431" as="sourcePoint" />
            <mxPoint x="326" y="461" as="targetPoint" />
            <Array as="points">
              <mxPoint x="326" y="441" />
              <mxPoint x="326" y="441" />
            </Array>
          </mxGeometry>
        </mxCell>
        <mxCell id="dLOgtfsmVxxkVSINsV2v-72" style="edgeStyle=orthogonalEdgeStyle;rounded=0;orthogonalLoop=1;jettySize=auto;html=1;exitX=0.689;exitY=1.093;exitDx=0;exitDy=0;exitPerimeter=0;" parent="1" edge="1">
          <mxGeometry relative="1" as="geometry">
            <mxPoint x="390" y="373" as="sourcePoint" />
            <mxPoint x="390" y="460" as="targetPoint" />
            <Array as="points">
              <mxPoint x="390" y="440" />
            </Array>
          </mxGeometry>
        </mxCell>
        <mxCell id="dLOgtfsmVxxkVSINsV2v-74" value="K&lt;span style=&quot;font-size: 10px;&quot;&gt;&lt;sub&gt;n&amp;nbsp;&lt;/sub&gt;&lt;/span&gt;= f(X&lt;sub style=&quot;border-color: var(--border-color);&quot;&gt;n&lt;/sub&gt;&lt;span style=&quot;border-color: var(--border-color);&quot;&gt;)&lt;/span&gt;&lt;sub style=&quot;border-color: var(--border-color);&quot;&gt;&amp;nbsp;&lt;/sub&gt;" style="text;html=1;strokeColor=none;fillColor=none;align=center;verticalAlign=middle;whiteSpace=wrap;rounded=0;" parent="1" vertex="1">
          <mxGeometry x="430" y="400" width="60" height="30" as="geometry" />
        </mxCell>
        <mxCell id="dLOgtfsmVxxkVSINsV2v-75" value="" style="edgeStyle=orthogonalEdgeStyle;rounded=0;orthogonalLoop=1;jettySize=auto;html=1;" parent="1" source="dLOgtfsmVxxkVSINsV2v-74" target="dLOgtfsmVxxkVSINsV2v-76" edge="1">
          <mxGeometry relative="1" as="geometry" />
        </mxCell>
        <mxCell id="-rzS_oPUhCV1eq0PeiBM-2" style="edgeStyle=orthogonalEdgeStyle;rounded=0;orthogonalLoop=1;jettySize=auto;html=1;" edge="1" parent="1" source="dLOgtfsmVxxkVSINsV2v-76" target="dLOgtfsmVxxkVSINsV2v-79">
          <mxGeometry relative="1" as="geometry" />
        </mxCell>
        <mxCell id="dLOgtfsmVxxkVSINsV2v-76" value="Fungsi MAC" style="rounded=0;whiteSpace=wrap;html=1;" parent="1" vertex="1">
          <mxGeometry x="510" y="400" width="50" height="30" as="geometry" />
        </mxCell>
        <mxCell id="dLOgtfsmVxxkVSINsV2v-77" style="edgeStyle=orthogonalEdgeStyle;rounded=0;orthogonalLoop=1;jettySize=auto;html=1;" parent="1" edge="1">
          <mxGeometry relative="1" as="geometry">
            <mxPoint x="535" y="370" as="sourcePoint" />
            <mxPoint x="535" y="400" as="targetPoint" />
            <Array as="points">
              <mxPoint x="535" y="380" />
              <mxPoint x="535" y="380" />
            </Array>
          </mxGeometry>
        </mxCell>
        <mxCell id="dLOgtfsmVxxkVSINsV2v-78" style="edgeStyle=orthogonalEdgeStyle;rounded=0;orthogonalLoop=1;jettySize=auto;html=1;exitX=0.689;exitY=1.093;exitDx=0;exitDy=0;exitPerimeter=0;" parent="1" edge="1">
          <mxGeometry relative="1" as="geometry">
            <mxPoint x="600" y="373" as="sourcePoint" />
            <mxPoint x="600" y="460" as="targetPoint" />
            <Array as="points">
              <mxPoint x="600" y="440" />
            </Array>
          </mxGeometry>
        </mxCell>
        <mxCell id="dLOgtfsmVxxkVSINsV2v-79" value="MAC&lt;sub&gt;n&lt;/sub&gt;" style="rounded=0;whiteSpace=wrap;html=1;" parent="1" vertex="1">
          <mxGeometry x="510" y="460" width="50" height="30" as="geometry" />
        </mxCell>
        <mxCell id="dLOgtfsmVxxkVSINsV2v-80" value="C&lt;span style=&quot;font-size: 10px;&quot;&gt;n&lt;/span&gt;" style="rounded=0;whiteSpace=wrap;html=1;" parent="1" vertex="1">
          <mxGeometry x="560" y="460" width="80" height="30" as="geometry" />
        </mxCell>
      </root>
    </mxGraphModel>
  </diagram>
  <diagram id="V-0V9B5wcuyhwd2LUnUV" name="Decrypt">
    <mxGraphModel dx="674" dy="628" grid="1" gridSize="10" guides="1" tooltips="1" connect="1" arrows="1" fold="1" page="1" pageScale="1" pageWidth="850" pageHeight="1100" math="0" shadow="0">
      <root>
        <mxCell id="0" />
        <mxCell id="1" parent="0" />
        <mxCell id="fG_Hg0KZ-a5OGt1LmFdi-1" style="edgeStyle=orthogonalEdgeStyle;rounded=0;orthogonalLoop=1;jettySize=auto;html=1;" parent="1" target="fG_Hg0KZ-a5OGt1LmFdi-5" edge="1">
          <mxGeometry relative="1" as="geometry">
            <mxPoint x="220" y="210" as="sourcePoint" />
          </mxGeometry>
        </mxCell>
        <mxCell id="fG_Hg0KZ-a5OGt1LmFdi-2" style="edgeStyle=orthogonalEdgeStyle;rounded=0;orthogonalLoop=1;jettySize=auto;html=1;entryX=0.5;entryY=0;entryDx=0;entryDy=0;" parent="1" target="fG_Hg0KZ-a5OGt1LmFdi-10" edge="1">
          <mxGeometry relative="1" as="geometry">
            <mxPoint x="443" y="210" as="sourcePoint" />
          </mxGeometry>
        </mxCell>
        <mxCell id="fG_Hg0KZ-a5OGt1LmFdi-3" style="edgeStyle=orthogonalEdgeStyle;rounded=0;orthogonalLoop=1;jettySize=auto;html=1;" parent="1" target="fG_Hg0KZ-a5OGt1LmFdi-11" edge="1">
          <mxGeometry relative="1" as="geometry">
            <mxPoint x="680" y="215" as="sourcePoint" />
          </mxGeometry>
        </mxCell>
        <mxCell id="fG_Hg0KZ-a5OGt1LmFdi-4" value="" style="verticalLabelPosition=bottom;verticalAlign=top;html=1;shape=mxgraph.flowchart.summing_function;" parent="1" vertex="1">
          <mxGeometry x="210" y="385" width="20" height="20" as="geometry" />
        </mxCell>
        <mxCell id="fG_Hg0KZ-a5OGt1LmFdi-5" value="AES" style="rounded=0;whiteSpace=wrap;html=1;" parent="1" vertex="1">
          <mxGeometry x="170" y="290" width="100" height="50" as="geometry" />
        </mxCell>
        <mxCell id="fG_Hg0KZ-a5OGt1LmFdi-6" value="" style="endArrow=classic;html=1;rounded=0;exitX=0.5;exitY=1;exitDx=0;exitDy=0;entryX=0.5;entryY=0;entryDx=0;entryDy=0;entryPerimeter=0;" parent="1" target="fG_Hg0KZ-a5OGt1LmFdi-4" edge="1">
          <mxGeometry width="50" height="50" relative="1" as="geometry">
            <mxPoint x="220" y="340" as="sourcePoint" />
            <mxPoint x="370" y="380" as="targetPoint" />
          </mxGeometry>
        </mxCell>
        <mxCell id="fG_Hg0KZ-a5OGt1LmFdi-7" value="" style="endArrow=classic;html=1;rounded=0;exitX=1;exitY=0.5;exitDx=0;exitDy=0;entryX=0;entryY=0.5;entryDx=0;entryDy=0;" parent="1" edge="1">
          <mxGeometry width="50" height="50" relative="1" as="geometry">
            <mxPoint x="110" y="314.5799999999999" as="sourcePoint" />
            <mxPoint x="170" y="315" as="targetPoint" />
          </mxGeometry>
        </mxCell>
        <mxCell id="fG_Hg0KZ-a5OGt1LmFdi-8" value="K&lt;sub style=&quot;border-color: var(--border-color);&quot;&gt;1&amp;nbsp;&lt;/sub&gt;= f(X&lt;sub style=&quot;border-color: var(--border-color);&quot;&gt;1&lt;/sub&gt;)&lt;sub style=&quot;border-color: var(--border-color);&quot;&gt;&amp;nbsp;&lt;/sub&gt;" style="text;html=1;strokeColor=none;fillColor=none;align=center;verticalAlign=middle;whiteSpace=wrap;rounded=0;" parent="1" vertex="1">
          <mxGeometry x="60" y="300" width="60" height="30" as="geometry" />
        </mxCell>
        <mxCell id="fG_Hg0KZ-a5OGt1LmFdi-9" value="" style="endArrow=classic;html=1;rounded=0;exitX=0.5;exitY=1;exitDx=0;exitDy=0;exitPerimeter=0;entryX=0.5;entryY=0;entryDx=0;entryDy=0;" parent="1" source="fG_Hg0KZ-a5OGt1LmFdi-4" edge="1">
          <mxGeometry width="50" height="50" relative="1" as="geometry">
            <mxPoint x="320" y="430" as="sourcePoint" />
            <mxPoint x="220" y="450" as="targetPoint" />
          </mxGeometry>
        </mxCell>
        <mxCell id="fG_Hg0KZ-a5OGt1LmFdi-10" value="AES" style="rounded=0;whiteSpace=wrap;html=1;" parent="1" vertex="1">
          <mxGeometry x="393" y="290" width="100" height="50" as="geometry" />
        </mxCell>
        <mxCell id="fG_Hg0KZ-a5OGt1LmFdi-11" value="AES" style="rounded=0;whiteSpace=wrap;html=1;" parent="1" vertex="1">
          <mxGeometry x="630" y="295" width="100" height="50" as="geometry" />
        </mxCell>
        <mxCell id="fG_Hg0KZ-a5OGt1LmFdi-12" value="K&lt;sub style=&quot;border-color: var(--border-color);&quot;&gt;2&amp;nbsp;&lt;/sub&gt;= f(X&lt;sub style=&quot;border-color: var(--border-color);&quot;&gt;2&lt;/sub&gt;)&lt;sub style=&quot;border-color: var(--border-color);&quot;&gt;&amp;nbsp;&lt;/sub&gt;" style="text;html=1;strokeColor=none;fillColor=none;align=center;verticalAlign=middle;whiteSpace=wrap;rounded=0;" parent="1" vertex="1">
          <mxGeometry x="310" y="300" width="63" height="30" as="geometry" />
        </mxCell>
        <mxCell id="fG_Hg0KZ-a5OGt1LmFdi-13" value="K&lt;sub style=&quot;border-color: var(--border-color);&quot;&gt;n&amp;nbsp;&lt;/sub&gt;= f(X&lt;sub style=&quot;border-color: var(--border-color);&quot;&gt;n&lt;/sub&gt;)&lt;sub style=&quot;border-color: var(--border-color);&quot;&gt;&amp;nbsp;&lt;/sub&gt;" style="text;html=1;strokeColor=none;fillColor=none;align=center;verticalAlign=middle;whiteSpace=wrap;rounded=0;" parent="1" vertex="1">
          <mxGeometry x="530" y="305" width="70" height="30" as="geometry" />
        </mxCell>
        <mxCell id="fG_Hg0KZ-a5OGt1LmFdi-14" value="" style="endArrow=classic;html=1;rounded=0;entryX=0;entryY=0.5;entryDx=0;entryDy=0;" parent="1" target="fG_Hg0KZ-a5OGt1LmFdi-10" edge="1">
          <mxGeometry width="50" height="50" relative="1" as="geometry">
            <mxPoint x="373" y="315" as="sourcePoint" />
            <mxPoint x="373" y="220" as="targetPoint" />
          </mxGeometry>
        </mxCell>
        <mxCell id="fG_Hg0KZ-a5OGt1LmFdi-15" value="" style="endArrow=classic;html=1;rounded=0;exitX=1;exitY=0.5;exitDx=0;exitDy=0;" parent="1" target="fG_Hg0KZ-a5OGt1LmFdi-11" edge="1">
          <mxGeometry width="50" height="50" relative="1" as="geometry">
            <mxPoint x="610" y="320" as="sourcePoint" />
            <mxPoint x="340" y="353" as="targetPoint" />
          </mxGeometry>
        </mxCell>
        <mxCell id="fG_Hg0KZ-a5OGt1LmFdi-16" value="M&lt;sub&gt;1&lt;/sub&gt;" style="rounded=0;whiteSpace=wrap;html=1;" parent="1" vertex="1">
          <mxGeometry x="160" y="455" width="120" height="30" as="geometry" />
        </mxCell>
        <mxCell id="fG_Hg0KZ-a5OGt1LmFdi-17" value="M&lt;sub&gt;2&lt;/sub&gt;" style="rounded=0;whiteSpace=wrap;html=1;" parent="1" vertex="1">
          <mxGeometry x="383" y="455" width="120" height="30" as="geometry" />
        </mxCell>
        <mxCell id="fG_Hg0KZ-a5OGt1LmFdi-18" value="M&lt;sub&gt;n&lt;/sub&gt;" style="rounded=0;whiteSpace=wrap;html=1;" parent="1" vertex="1">
          <mxGeometry x="620" y="455" width="120" height="30" as="geometry" />
        </mxCell>
        <mxCell id="fG_Hg0KZ-a5OGt1LmFdi-19" value="" style="endArrow=classic;html=1;rounded=0;exitX=0.5;exitY=1;exitDx=0;exitDy=0;entryX=0.5;entryY=0;entryDx=0;entryDy=0;entryPerimeter=0;" parent="1" target="fG_Hg0KZ-a5OGt1LmFdi-20" edge="1">
          <mxGeometry width="50" height="50" relative="1" as="geometry">
            <mxPoint x="443" y="340" as="sourcePoint" />
            <mxPoint x="593" y="380" as="targetPoint" />
          </mxGeometry>
        </mxCell>
        <mxCell id="fG_Hg0KZ-a5OGt1LmFdi-20" value="" style="verticalLabelPosition=bottom;verticalAlign=top;html=1;shape=mxgraph.flowchart.summing_function;" parent="1" vertex="1">
          <mxGeometry x="433" y="385" width="20" height="20" as="geometry" />
        </mxCell>
        <mxCell id="fG_Hg0KZ-a5OGt1LmFdi-21" value="" style="endArrow=classic;html=1;rounded=0;exitX=0.5;exitY=1;exitDx=0;exitDy=0;exitPerimeter=0;entryX=0.5;entryY=0;entryDx=0;entryDy=0;" parent="1" source="fG_Hg0KZ-a5OGt1LmFdi-20" edge="1">
          <mxGeometry width="50" height="50" relative="1" as="geometry">
            <mxPoint x="543" y="430" as="sourcePoint" />
            <mxPoint x="443" y="450" as="targetPoint" />
          </mxGeometry>
        </mxCell>
        <mxCell id="fG_Hg0KZ-a5OGt1LmFdi-22" value="" style="endArrow=classic;html=1;rounded=0;exitX=0.5;exitY=1;exitDx=0;exitDy=0;entryX=0.5;entryY=0;entryDx=0;entryDy=0;entryPerimeter=0;" parent="1" target="fG_Hg0KZ-a5OGt1LmFdi-23" edge="1">
          <mxGeometry width="50" height="50" relative="1" as="geometry">
            <mxPoint x="680" y="345" as="sourcePoint" />
            <mxPoint x="830" y="385" as="targetPoint" />
          </mxGeometry>
        </mxCell>
        <mxCell id="fG_Hg0KZ-a5OGt1LmFdi-23" value="" style="verticalLabelPosition=bottom;verticalAlign=top;html=1;shape=mxgraph.flowchart.summing_function;" parent="1" vertex="1">
          <mxGeometry x="670" y="390" width="20" height="20" as="geometry" />
        </mxCell>
        <mxCell id="fG_Hg0KZ-a5OGt1LmFdi-24" value="" style="endArrow=classic;html=1;rounded=0;exitX=0.5;exitY=1;exitDx=0;exitDy=0;exitPerimeter=0;entryX=0.5;entryY=0;entryDx=0;entryDy=0;" parent="1" source="fG_Hg0KZ-a5OGt1LmFdi-23" edge="1">
          <mxGeometry width="50" height="50" relative="1" as="geometry">
            <mxPoint x="780" y="435" as="sourcePoint" />
            <mxPoint x="680" y="455" as="targetPoint" />
          </mxGeometry>
        </mxCell>
        <mxCell id="fG_Hg0KZ-a5OGt1LmFdi-25" style="edgeStyle=orthogonalEdgeStyle;rounded=0;orthogonalLoop=1;jettySize=auto;html=1;entryX=0;entryY=0.5;entryDx=0;entryDy=0;entryPerimeter=0;" parent="1" target="fG_Hg0KZ-a5OGt1LmFdi-20" edge="1">
          <mxGeometry relative="1" as="geometry">
            <Array as="points">
              <mxPoint x="240" y="240" />
              <mxPoint x="290" y="240" />
              <mxPoint x="290" y="395" />
            </Array>
            <mxPoint x="240" y="210" as="sourcePoint" />
          </mxGeometry>
        </mxCell>
        <mxCell id="fG_Hg0KZ-a5OGt1LmFdi-26" value="" style="endArrow=classic;html=1;rounded=0;" parent="1" edge="1">
          <mxGeometry width="50" height="50" relative="1" as="geometry">
            <mxPoint x="625" y="400" as="sourcePoint" />
            <mxPoint x="670" y="400" as="targetPoint" />
          </mxGeometry>
        </mxCell>
        <mxCell id="fG_Hg0KZ-a5OGt1LmFdi-27" value="C&lt;sub&gt;n-1&lt;/sub&gt;" style="text;html=1;strokeColor=none;fillColor=none;align=center;verticalAlign=middle;whiteSpace=wrap;rounded=0;" parent="1" vertex="1">
          <mxGeometry x="580" y="385" width="40" height="30" as="geometry" />
        </mxCell>
        <mxCell id="fG_Hg0KZ-a5OGt1LmFdi-28" value="IV" style="text;html=1;strokeColor=none;fillColor=none;align=center;verticalAlign=middle;whiteSpace=wrap;rounded=0;" parent="1" vertex="1">
          <mxGeometry x="100" y="380" width="30" height="30" as="geometry" />
        </mxCell>
        <mxCell id="fG_Hg0KZ-a5OGt1LmFdi-29" value="" style="endArrow=classic;html=1;rounded=0;exitX=1;exitY=0.5;exitDx=0;exitDy=0;entryX=0;entryY=0.5;entryDx=0;entryDy=0;entryPerimeter=0;" parent="1" source="fG_Hg0KZ-a5OGt1LmFdi-28" edge="1">
          <mxGeometry width="50" height="50" relative="1" as="geometry">
            <mxPoint x="320" y="430" as="sourcePoint" />
            <mxPoint x="210" y="395" as="targetPoint" />
          </mxGeometry>
        </mxCell>
        <mxCell id="fG_Hg0KZ-a5OGt1LmFdi-30" value="C&lt;sub&gt;1&lt;/sub&gt;" style="rounded=0;whiteSpace=wrap;html=1;" parent="1" vertex="1">
          <mxGeometry x="154" y="180" width="130" height="30" as="geometry" />
        </mxCell>
        <mxCell id="fG_Hg0KZ-a5OGt1LmFdi-31" value="C&lt;sub&gt;2&lt;/sub&gt;" style="rounded=0;whiteSpace=wrap;html=1;" parent="1" vertex="1">
          <mxGeometry x="377" y="180" width="130" height="30" as="geometry" />
        </mxCell>
        <mxCell id="fG_Hg0KZ-a5OGt1LmFdi-32" value="C&lt;sub&gt;n&lt;/sub&gt;" style="rounded=0;whiteSpace=wrap;html=1;" parent="1" vertex="1">
          <mxGeometry x="610" y="180" width="130" height="30" as="geometry" />
        </mxCell>
        <mxCell id="fG_Hg0KZ-a5OGt1LmFdi-33" value="" style="group" parent="1" vertex="1" connectable="0">
          <mxGeometry x="155" y="50" width="130" height="30" as="geometry" />
        </mxCell>
        <mxCell id="fG_Hg0KZ-a5OGt1LmFdi-34" value="C&lt;sub&gt;1&lt;/sub&gt;" style="rounded=0;whiteSpace=wrap;html=1;" parent="fG_Hg0KZ-a5OGt1LmFdi-33" vertex="1">
          <mxGeometry x="50" width="80" height="30" as="geometry" />
        </mxCell>
        <mxCell id="fG_Hg0KZ-a5OGt1LmFdi-35" value="MAC&lt;sub&gt;1&lt;/sub&gt;" style="rounded=0;whiteSpace=wrap;html=1;" parent="fG_Hg0KZ-a5OGt1LmFdi-33" vertex="1">
          <mxGeometry width="50" height="30" as="geometry" />
        </mxCell>
        <mxCell id="fG_Hg0KZ-a5OGt1LmFdi-36" value="" style="group" parent="1" vertex="1" connectable="0">
          <mxGeometry x="377" y="50" width="130" height="30" as="geometry" />
        </mxCell>
        <mxCell id="fG_Hg0KZ-a5OGt1LmFdi-37" value="C&lt;span style=&quot;font-size: 10px;&quot;&gt;2&lt;/span&gt;" style="rounded=0;whiteSpace=wrap;html=1;" parent="fG_Hg0KZ-a5OGt1LmFdi-36" vertex="1">
          <mxGeometry x="50" width="80" height="30" as="geometry" />
        </mxCell>
        <mxCell id="fG_Hg0KZ-a5OGt1LmFdi-38" value="MAC&lt;sub&gt;2&lt;/sub&gt;" style="rounded=0;whiteSpace=wrap;html=1;" parent="fG_Hg0KZ-a5OGt1LmFdi-36" vertex="1">
          <mxGeometry width="50" height="30" as="geometry" />
        </mxCell>
        <mxCell id="fG_Hg0KZ-a5OGt1LmFdi-39" value="" style="group" parent="1" vertex="1" connectable="0">
          <mxGeometry x="610" y="50" width="130" height="30" as="geometry" />
        </mxCell>
        <mxCell id="fG_Hg0KZ-a5OGt1LmFdi-40" value="MAC&lt;sub&gt;n&lt;/sub&gt;" style="rounded=0;whiteSpace=wrap;html=1;" parent="fG_Hg0KZ-a5OGt1LmFdi-39" vertex="1">
          <mxGeometry width="50" height="30" as="geometry" />
        </mxCell>
        <mxCell id="fG_Hg0KZ-a5OGt1LmFdi-41" value="C&lt;span style=&quot;font-size: 10px;&quot;&gt;n&lt;/span&gt;" style="rounded=0;whiteSpace=wrap;html=1;" parent="fG_Hg0KZ-a5OGt1LmFdi-39" vertex="1">
          <mxGeometry x="50" width="80" height="30" as="geometry" />
        </mxCell>
        <mxCell id="rdDsh83quPSsYyfcJrZ0-1" value="Fungsi Validasi MAC" style="rounded=0;whiteSpace=wrap;html=1;" vertex="1" parent="1">
          <mxGeometry x="155" y="110" width="75" height="30" as="geometry" />
        </mxCell>
        <mxCell id="rdDsh83quPSsYyfcJrZ0-10" style="edgeStyle=orthogonalEdgeStyle;rounded=0;orthogonalLoop=1;jettySize=auto;html=1;entryX=0;entryY=0.5;entryDx=0;entryDy=0;" edge="1" parent="1" source="rdDsh83quPSsYyfcJrZ0-3" target="rdDsh83quPSsYyfcJrZ0-1">
          <mxGeometry relative="1" as="geometry" />
        </mxCell>
        <mxCell id="rdDsh83quPSsYyfcJrZ0-3" value="K&lt;sub&gt;1&amp;nbsp;&lt;/sub&gt;= f(X&lt;sub style=&quot;border-color: var(--border-color);&quot;&gt;1&lt;/sub&gt;&lt;span style=&quot;border-color: var(--border-color);&quot;&gt;)&lt;/span&gt;&lt;sub style=&quot;border-color: var(--border-color);&quot;&gt;&amp;nbsp;&lt;/sub&gt;" style="text;html=1;strokeColor=none;fillColor=none;align=center;verticalAlign=middle;whiteSpace=wrap;rounded=0;" vertex="1" parent="1">
          <mxGeometry x="40" y="110" width="60" height="30" as="geometry" />
        </mxCell>
        <mxCell id="rdDsh83quPSsYyfcJrZ0-8" value="Fungsi Validasi MAC" style="rounded=0;whiteSpace=wrap;html=1;" vertex="1" parent="1">
          <mxGeometry x="378" y="110" width="82" height="30" as="geometry" />
        </mxCell>
        <mxCell id="rdDsh83quPSsYyfcJrZ0-9" value="Fungsi Validasi MAC" style="rounded=0;whiteSpace=wrap;html=1;" vertex="1" parent="1">
          <mxGeometry x="610" y="110" width="80" height="30" as="geometry" />
        </mxCell>
        <mxCell id="rdDsh83quPSsYyfcJrZ0-12" style="edgeStyle=orthogonalEdgeStyle;rounded=0;orthogonalLoop=1;jettySize=auto;html=1;entryX=0;entryY=0.5;entryDx=0;entryDy=0;" edge="1" parent="1" source="rdDsh83quPSsYyfcJrZ0-11" target="rdDsh83quPSsYyfcJrZ0-8">
          <mxGeometry relative="1" as="geometry" />
        </mxCell>
        <mxCell id="rdDsh83quPSsYyfcJrZ0-11" value="K&lt;sub&gt;2&amp;nbsp;&lt;/sub&gt;= f(X&lt;sub style=&quot;border-color: var(--border-color);&quot;&gt;2&lt;/sub&gt;&lt;span style=&quot;border-color: var(--border-color);&quot;&gt;)&lt;/span&gt;&lt;sub style=&quot;border-color: var(--border-color);&quot;&gt;&amp;nbsp;&lt;/sub&gt;" style="text;html=1;strokeColor=none;fillColor=none;align=center;verticalAlign=middle;whiteSpace=wrap;rounded=0;" vertex="1" parent="1">
          <mxGeometry x="293" y="110" width="60" height="30" as="geometry" />
        </mxCell>
        <mxCell id="rdDsh83quPSsYyfcJrZ0-13" value="K&lt;sub&gt;n&amp;nbsp;&lt;/sub&gt;= f(X&lt;sub style=&quot;border-color: var(--border-color);&quot;&gt;n&lt;/sub&gt;&lt;span style=&quot;border-color: var(--border-color);&quot;&gt;)&lt;/span&gt;&lt;sub style=&quot;border-color: var(--border-color);&quot;&gt;&amp;nbsp;&lt;/sub&gt;" style="text;html=1;strokeColor=none;fillColor=none;align=center;verticalAlign=middle;whiteSpace=wrap;rounded=0;" vertex="1" parent="1">
          <mxGeometry x="525" y="110" width="60" height="30" as="geometry" />
        </mxCell>
        <mxCell id="rdDsh83quPSsYyfcJrZ0-14" style="edgeStyle=orthogonalEdgeStyle;rounded=0;orthogonalLoop=1;jettySize=auto;html=1;entryX=0;entryY=0.5;entryDx=0;entryDy=0;" edge="1" source="rdDsh83quPSsYyfcJrZ0-13" parent="1">
          <mxGeometry relative="1" as="geometry">
            <mxPoint x="610" y="125" as="targetPoint" />
          </mxGeometry>
        </mxCell>
        <mxCell id="rdDsh83quPSsYyfcJrZ0-24" style="edgeStyle=orthogonalEdgeStyle;rounded=0;orthogonalLoop=1;jettySize=auto;html=1;entryX=0.333;entryY=-0.098;entryDx=0;entryDy=0;entryPerimeter=0;" edge="1" parent="1" source="fG_Hg0KZ-a5OGt1LmFdi-35" target="rdDsh83quPSsYyfcJrZ0-1">
          <mxGeometry relative="1" as="geometry" />
        </mxCell>
        <mxCell id="rdDsh83quPSsYyfcJrZ0-25" style="edgeStyle=orthogonalEdgeStyle;rounded=0;orthogonalLoop=1;jettySize=auto;html=1;entryX=0.694;entryY=-0.04;entryDx=0;entryDy=0;entryPerimeter=0;" edge="1" parent="1" source="fG_Hg0KZ-a5OGt1LmFdi-34" target="fG_Hg0KZ-a5OGt1LmFdi-30">
          <mxGeometry relative="1" as="geometry" />
        </mxCell>
        <mxCell id="rdDsh83quPSsYyfcJrZ0-26" style="edgeStyle=orthogonalEdgeStyle;rounded=0;orthogonalLoop=1;jettySize=auto;html=1;entryX=0.817;entryY=0;entryDx=0;entryDy=0;entryPerimeter=0;" edge="1" parent="1" source="fG_Hg0KZ-a5OGt1LmFdi-34" target="rdDsh83quPSsYyfcJrZ0-1">
          <mxGeometry relative="1" as="geometry">
            <Array as="points">
              <mxPoint x="245" y="90" />
              <mxPoint x="216" y="90" />
            </Array>
          </mxGeometry>
        </mxCell>
        <mxCell id="rdDsh83quPSsYyfcJrZ0-27" style="edgeStyle=orthogonalEdgeStyle;rounded=0;orthogonalLoop=1;jettySize=auto;html=1;entryX=0.288;entryY=0.062;entryDx=0;entryDy=0;entryPerimeter=0;" edge="1" parent="1" source="fG_Hg0KZ-a5OGt1LmFdi-38" target="rdDsh83quPSsYyfcJrZ0-8">
          <mxGeometry relative="1" as="geometry" />
        </mxCell>
        <mxCell id="rdDsh83quPSsYyfcJrZ0-28" style="edgeStyle=orthogonalEdgeStyle;rounded=0;orthogonalLoop=1;jettySize=auto;html=1;entryX=0.692;entryY=0;entryDx=0;entryDy=0;entryPerimeter=0;" edge="1" parent="1" source="fG_Hg0KZ-a5OGt1LmFdi-37" target="fG_Hg0KZ-a5OGt1LmFdi-31">
          <mxGeometry relative="1" as="geometry" />
        </mxCell>
        <mxCell id="rdDsh83quPSsYyfcJrZ0-29" style="edgeStyle=orthogonalEdgeStyle;rounded=0;orthogonalLoop=1;jettySize=auto;html=1;entryX=0.75;entryY=0;entryDx=0;entryDy=0;" edge="1" parent="1" source="fG_Hg0KZ-a5OGt1LmFdi-37" target="rdDsh83quPSsYyfcJrZ0-8">
          <mxGeometry relative="1" as="geometry">
            <Array as="points">
              <mxPoint x="467" y="90" />
              <mxPoint x="440" y="90" />
            </Array>
          </mxGeometry>
        </mxCell>
        <mxCell id="rdDsh83quPSsYyfcJrZ0-30" style="edgeStyle=orthogonalEdgeStyle;rounded=0;orthogonalLoop=1;jettySize=auto;html=1;entryX=0.305;entryY=-0.027;entryDx=0;entryDy=0;entryPerimeter=0;" edge="1" parent="1" source="fG_Hg0KZ-a5OGt1LmFdi-40" target="rdDsh83quPSsYyfcJrZ0-9">
          <mxGeometry relative="1" as="geometry" />
        </mxCell>
        <mxCell id="rdDsh83quPSsYyfcJrZ0-31" style="edgeStyle=orthogonalEdgeStyle;rounded=0;orthogonalLoop=1;jettySize=auto;html=1;entryX=0.692;entryY=0.013;entryDx=0;entryDy=0;entryPerimeter=0;" edge="1" parent="1" source="fG_Hg0KZ-a5OGt1LmFdi-41" target="fG_Hg0KZ-a5OGt1LmFdi-32">
          <mxGeometry relative="1" as="geometry" />
        </mxCell>
        <mxCell id="rdDsh83quPSsYyfcJrZ0-32" style="edgeStyle=orthogonalEdgeStyle;rounded=0;orthogonalLoop=1;jettySize=auto;html=1;entryX=0.75;entryY=0;entryDx=0;entryDy=0;" edge="1" parent="1" source="fG_Hg0KZ-a5OGt1LmFdi-41" target="rdDsh83quPSsYyfcJrZ0-9">
          <mxGeometry relative="1" as="geometry">
            <Array as="points">
              <mxPoint x="700" y="90" />
              <mxPoint x="670" y="90" />
            </Array>
          </mxGeometry>
        </mxCell>
      </root>
    </mxGraphModel>
  </diagram>
</mxfile>
